# xmcd
#
# Track frame offsets:
#	150
#	18181
#	31529
#	51228
#	67737
#	82596
#	102091
#	124569
#	144449
#	164322
#	186401
#	203219
#	213706
#	232923
#
# Disc length: 3384 seconds
#
# Revision: 1
# Processed by: cddbd v1.5.1PL2 Copyright (c) Steve Scherf et al.
# Submitted via: audiograbber 1.82.02
#
DISCID=aa0d360e
DTITLE=True North - Cobalt Miles Of Sky
DYEAR=1900
DGENRE=Bluegrass
TTITLE0=Twilight Years
TTITLE1=Heart Shaped Rock
TTITLE2=Long Tearful Goodbye
TTITLE3=Baby Baby All The Time
TTITLE4=Roadside Cross
TTITLE5=Fool In The Rain
TTITLE6=Redeye
TTITLE7=Long Ride Home
TTITLE8=Train Man
TTITLE9=Can't Let Go
TTITLE10=Fool Myself
TTITLE11=Sweetie Pie Boogie
TTITLE12=You're Gonna Make Me Lonesome When You Go
TTITLE13=Shame On The Moon
EXTD=
EXTT0=
EXTT1=
EXTT2=
EXTT3=
EXTT4=
EXTT5=
EXTT6=
EXTT7=
EXTT8=
EXTT9=
EXTT10=
EXTT11=
EXTT12=
EXTT13=
PLAYORDER=
